<?xml version="1.0" encoding="UTF-8"?>
<svg xmlns="http://www.w3.org/2000/svg" viewBox="0 0 267.84 267.84">
  <defs>
    <style>
      .cls-1 {
        fill: #fff;
      }

      .cls-2 {
        fill: #231f20;
      }
    </style>
  </defs>
  <g id="Layer_1" data-name="Layer 1">
    <circle class="cls-2" cx="133.92" cy="133.92" r="133.92"/>
  </g>
  <g id="Layer_4" data-name="Layer 4">
    <g>
      <path class="cls-1" d="M84.66,66.8h31.42v11.07h-8.13v74.93c0,.94-.22,2.04-.67,3.29-.45,1.26-1.02,2.59-1.73,4-.7,1.41-1.53,2.85-2.46,4.32-.94,1.47-1.88,2.91-2.82,4.32-2.26,3.29-4.82,6.72-7.68,10.3l-11.01-.96c2.52-3.84,4.78-7.51,6.78-11.01,.85-1.49,1.68-3.02,2.5-4.58,.81-1.56,1.54-3.06,2.18-4.51,.64-1.45,1.16-2.8,1.57-4.06,.41-1.26,.61-2.33,.61-3.23V77.87h-10.56v-11.07Z"/>
      <path class="cls-1" d="M119.75,88.8h31.42v11.07h-8.13v74.93c0,.94-.22,2.04-.67,3.29-.45,1.26-1.02,2.59-1.73,4-.7,1.41-1.53,2.85-2.46,4.32-.94,1.47-1.88,2.91-2.81,4.32-2.26,3.29-4.82,6.72-7.68,10.3l-11.01-.96c2.52-3.84,4.78-7.51,6.78-11.01,.85-1.49,1.68-3.02,2.5-4.58,.81-1.56,1.54-3.06,2.18-4.51,.64-1.45,1.16-2.8,1.57-4.06,.41-1.26,.61-2.33,.61-3.23V99.87h-10.56v-11.07Z"/>
      <path class="cls-1" d="M154.83,66.8h31.42v11.07h-8.13v74.93c0,.94-.22,2.04-.67,3.29-.45,1.26-1.02,2.59-1.73,4-.7,1.41-1.53,2.85-2.46,4.32-.94,1.47-1.88,2.91-2.82,4.32-2.26,3.29-4.82,6.72-7.68,10.3l-11.01-.96c2.52-3.84,4.78-7.51,6.78-11.01,.85-1.49,1.68-3.02,2.5-4.58,.81-1.56,1.54-3.06,2.17-4.51,.64-1.45,1.16-2.8,1.57-4.06,.4-1.26,.61-2.33,.61-3.23V77.87h-10.56v-11.07Z"/>
    </g>
  </g>
  <g id="Layer_5" data-name="Layer 5">
    <g>
      <path class="cls-1" d="M72.7,219.76l11,5.89-2.23,4.61-2.08-1.11,1.33-2.75-5.48-2.93-2.52,5.22,4.61,2.47-.89,1.85-4.61-2.47-2.67,5.53,5.48,2.93,1.33-2.75,2.08,1.11-2.22,4.6-11-5.89,.89-1.85,1.46,.78,6.08-12.59-1.46-.78,.9-1.86Z"/>
      <path class="cls-1" d="M81.65,230.96l3.81,1.49-.69,1.94-1.03-.4-.13,9.13,5.52-7.03-.67-.26,.69-1.94,3.49,1.37-.69,1.94-.95-.37-7.13,8.53-1.96-.77-.08-11.35-.87-.34,.69-1.94Z"/>
      <path class="cls-1" d="M93.84,242.37c-.09,.34-.14,.66-.16,.96-.02,.3-.02,.59,0,.87,.08,.85,.36,1.56,.86,2.11,.5,.56,1.13,.94,1.88,1.15,.59,.16,1.19,.24,1.8,.22,.6-.02,1.26-.13,1.97-.34l.45,1.71c-.88,.34-1.74,.53-2.56,.59-.82,.06-1.64-.03-2.45-.25-.77-.21-1.45-.55-2.04-1-.59-.45-1.05-1.01-1.39-1.68-.34-.67-.54-1.44-.61-2.31-.07-.87,.04-1.84,.3-2.91,.22-.86,.54-1.64,.96-2.35,.42-.7,.93-1.28,1.52-1.72,.59-.45,1.27-.75,2.02-.89,.75-.15,1.57-.1,2.46,.14,.86,.24,1.54,.57,2.05,1.01,.51,.43,.88,.93,1.13,1.48,.25,.55,.39,1.15,.43,1.78,.04,.63,.02,1.26-.06,1.89-.04,.3-.09,.61-.15,.92-.07,.31-.13,.6-.21,.89l-8.2-2.26Zm4.41-3.93c-.48-.13-.91-.17-1.3-.13-.39,.05-.75,.17-1.06,.37-.32,.2-.6,.47-.85,.82-.25,.35-.47,.75-.66,1.21l5.9,1.63c.08-.46,.12-.89,.11-1.3-.01-.41-.09-.79-.24-1.13-.15-.34-.38-.64-.68-.89-.31-.25-.71-.45-1.22-.58Z"/>
      <path class="cls-1" d="M111.43,250.31l1.64,.27,.85-5.63c.14-.94,.02-1.7-.35-2.26-.38-.56-.99-.91-1.84-1.05-.49-.08-1-.04-1.53,.13s-1.05,.39-1.54,.69l-1.09,7.23,1.64,.27-.31,2.05-5.44-.89,.31-2.05,1.62,.26,1.25-8.24-1.62-.26,.31-2.05,3.71,.61-.22,1.45h.02c.28-.18,.58-.36,.89-.52,.31-.16,.63-.29,.96-.39,.33-.1,.67-.17,1.01-.2,.35-.03,.7-.02,1.07,.04,.62,.1,1.17,.29,1.64,.55,.47,.27,.86,.61,1.15,1.04,.3,.43,.49,.95,.6,1.57,.1,.61,.09,1.32-.03,2.11l-.89,5.9,1.62,.26-.31,2.05-5.44-.89,.31-2.05Z"/>
      <path class="cls-1" d="M122.86,241.15l2.76,.21-.14,1.81-2.78-.21-.58,7.18c-.04,.49-.01,.89,.07,1.2,.08,.31,.24,.54,.46,.67,.22,.13,.49,.21,.78,.24,.32,.02,.6,.02,.85-.03,.25-.04,.52-.12,.82-.25l.37,1.54c-.38,.17-.77,.3-1.18,.39-.41,.08-.89,.11-1.43,.06-.51-.04-.96-.14-1.33-.3-.37-.16-.68-.41-.92-.74-.24-.33-.4-.77-.49-1.3s-.1-1.2-.04-1.98l.55-6.84-1.87-.14,.14-1.81,1.89,.15,.22-2.98,2.14-.87-.3,4.01Z"/>
      <path class="cls-1" d="M142.4,235.45l5.59-.27,.08,2.08-1.49,.07-4.97,16.43-3.13,.15-6.11-15.89-1.52,.08-.08-2.08,5.59-.27,.08,2.08-1.5,.07,4.95,13.85,4.21-14.29-1.63,.08-.08-2.08Z"/>
      <path class="cls-1" d="M149.77,247.09c.04,.35,.11,.67,.19,.95,.08,.28,.19,.55,.31,.8,.38,.76,.9,1.29,1.56,1.6,.66,.31,1.38,.41,2.16,.3,.61-.09,1.19-.26,1.75-.52,.55-.26,1.12-.63,1.71-1.1l1.03,1.39c-.7,.67-1.42,1.19-2.16,1.58-.74,.38-1.53,.64-2.36,.76-.79,.11-1.54,.08-2.25-.1-.71-.18-1.34-.51-1.89-.99-.55-.48-1.02-1.11-1.39-1.89-.38-.78-.63-1.71-.77-2.8-.11-.89-.1-1.73,.04-2.55,.14-.82,.4-1.55,.79-2.2,.39-.65,.91-1.2,1.55-1.64,.64-.44,1.42-.73,2.33-.86,.88-.13,1.63-.09,2.26,.1,.63,.2,1.15,.5,1.58,.91,.43,.41,.78,.9,1.04,1.47,.27,.57,.47,1.16,.63,1.77,.07,.3,.14,.6,.19,.91,.05,.31,.09,.61,.13,.9l-8.42,1.22Zm2.67-5.4c-.49,.07-.91,.21-1.25,.41-.35,.2-.63,.46-.85,.77-.22,.31-.39,.68-.49,1.1-.11,.42-.16,.88-.18,1.39l6.06-.88c-.09-.46-.21-.87-.37-1.25-.16-.37-.37-.69-.63-.94-.26-.25-.58-.43-.95-.54-.37-.11-.82-.12-1.34-.05Z"/>
      <path class="cls-1" d="M168.89,247.41l1.62-.4-1.19-5.55c-.2-.93-.58-1.58-1.13-1.95-.55-.37-1.25-.45-2.08-.25-.48,.12-.94,.36-1.38,.72-.44,.36-.83,.78-1.19,1.25l1.53,7.12,1.62-.4,.43,2.02-5.37,1.33-.43-2.02,1.6-.39-1.74-8.11-1.6,.4-.43-2.02,3.66-.91,.31,1.43h.02c.2-.29,.41-.57,.65-.84,.23-.27,.48-.52,.76-.74,.27-.22,.56-.42,.87-.59,.31-.17,.65-.3,1.01-.39,.61-.15,1.19-.2,1.72-.14,.54,.06,1.02,.23,1.44,.51,.43,.28,.8,.69,1.11,1.21,.31,.53,.55,1.18,.72,1.97l1.25,5.82,1.6-.39,.43,2.02-5.37,1.33-.43-2.02Z"/>
      <path class="cls-1" d="M179.78,233.21l3.6-1.31,3.14,9.84,1.24-.45,.62,1.96-3.26,1.18-.35-1.09c-.37,.59-.82,1.11-1.34,1.55-.52,.44-1.12,.79-1.8,1.03-.56,.21-1.1,.3-1.61,.3-.51,0-.99-.13-1.42-.37-.44-.24-.83-.61-1.18-1.1s-.65-1.12-.89-1.89l-1.8-5.64-1.51,.55-.62-1.96,3.6-1.31,2.34,7.35c.29,.91,.7,1.52,1.25,1.83,.54,.32,1.18,.35,1.93,.08,.44-.16,.87-.41,1.31-.75,.43-.34,.82-.74,1.15-1.19l-2.29-7.19-1.5,.54-.62-1.96Z"/>
      <path class="cls-1" d="M190.68,235.8c.14,.32,.28,.61,.44,.85,.16,.24,.33,.47,.52,.67,.57,.61,1.21,.96,1.93,1.06,.72,.1,1.44-.02,2.15-.37,.56-.27,1.07-.61,1.53-1.03,.46-.42,.91-.94,1.34-1.57l1.37,1.02c-.49,.85-1.04,1.57-1.65,2.16-.61,.59-1.3,1.07-2.06,1.44-.73,.35-1.46,.55-2.18,.59-.73,.04-1.42-.08-2.08-.37-.66-.29-1.28-.75-1.85-1.38-.57-.63-1.07-1.45-1.5-2.45-.34-.81-.56-1.63-.65-2.45-.09-.82-.04-1.6,.16-2.35,.2-.74,.55-1.42,1.04-2.04,.5-.62,1.16-1.13,2-1.53,.81-.39,1.54-.58,2.2-.59,.65,0,1.24,.13,1.77,.39,.52,.26,.99,.62,1.4,1.09,.41,.46,.77,.96,1.08,1.5,.15,.26,.29,.53,.43,.81,.13,.28,.25,.56,.37,.83l-7.75,3.72Zm1.1-5.98c-.45,.22-.81,.47-1.09,.77-.28,.3-.48,.63-.61,.99-.13,.37-.19,.76-.17,1.2,.01,.43,.08,.89,.2,1.38l5.58-2.68c-.21-.41-.44-.77-.69-1.08s-.54-.55-.86-.71c-.32-.16-.67-.24-1.06-.23-.39,0-.82,.13-1.3,.36Z"/>
    </g>
  </g>
  <g id="Layer_6" data-name="Layer 6">
    <path class="cls-1" d="M236.34,200.89c-.01-.46-.27-.63-.59-.73-.58-.17-1.17-.2-1.76-.12-2.24,.32-4.39,.93-6.25,2.26-1.68,1.2-3.5,2.16-5.31,3.16-.11,.06-.23,.17-.42-.04,.28-.8,.78-1.49,1.41-2.1,.27-.26,.56-.35,.95-.3,.94,.13,1.8-.14,2.57-.68,.57-.4,1.13-.82,1.67-1.27,1.56-1.29,3.13-2.57,4.66-3.89,1.18-1.03,2.3-2.13,3.46-3.2,.59-.55,1.06-1.2,1.48-1.89,.76-1.28,.99-2.75,1.4-4.15,.14-.47-.48-.91-.97-.74-.13,.05-.25,.13-.36,.2-.89,.56-1.74,1.16-2.52,1.87-1.21,1.11-2.42,2.22-3.65,3.3-.65,.57-1.34,1.11-2.05,1.63-1.28,.93-2.46,1.94-3.47,3.16-.14,.17-.26,.39-.51,.45,.94-2.02,1.84-4.03,2.79-6.02,.99-2.08,1.9-4.2,2.68-6.37,.27-.74,.67-1.27,1.33-1.67,1.33-.79,2.47-1.82,3.48-2.99,2.37-2.75,4.75-5.48,6.79-8.5,1.89-2.78,3.6-5.66,5-8.71,.91-1.99,1.4-4.08,1.36-6.29-.03-1.39,0-2.79,.28-4.17,.02-.1,.05-.21,.05-.31,0-.26-.05-.49-.31-.62-.19-.09-.47,0-.63,.24-.25,.38-.49,.76-.69,1.17-.29,.6-.56,1.2-.8,1.82-.64,1.63-1.26,3.26-1.86,4.89-.23,.62-.33,1.29-.58,1.9-.82,2.04-1.65,4.08-2.55,6.09-.94,2.11-2.29,4-3.43,6-1.15,2.02-2.6,3.8-4.26,5.42-.44,.43-.92,.84-1.55,1.41,.17-.55,.27-.87,.36-1.19,.13-.43,.26-.87,.36-1.31,.18-.75,.34-1.5,.53-2.24,.36-1.42,.77-2.83,1.11-4.25,.6-2.51,1.2-5.03,1.72-7.55,.18-.89,.52-1.66,1.04-2.37,1.16-1.57,2.32-3.14,3.48-4.71,.81-1.1,1.52-2.26,1.87-3.6,.4-1.52,.75-3.06,.83-4.63,.21-4.02-.04-8.03-.74-12-.17-.94-.3-1.85-.12-2.8,.09-.47,.06-.98,0-1.46-.07-.51-.41-.67-.83-.4-.76,.49-1.48,1.05-1.93,1.88-.53,.98-1.08,1.96-1.41,3.04-.08,.28-.25,.54-.39,.8,0,0,0-.01,0-.02-.21-1.2,.22-2.17,.54-3.29,.12-.45,.22-.59,.36-.87,.39-.78,.72-1.6,1.2-2.32,.78-1.19,1.89-2.03,3.14-2.7,.64-.34,1.28-.71,1.88-1.13,.88-.62,1.5-1.47,1.85-2.48,.16-.45,.27-.95,.25-1.43-.04-.95-.76-1.5-1.71-1.41-.14,.01-.28,.03-.41,.06-2.64,.6-4.9,1.84-6.51,4.07-.45,.62-.82,1.3-1.13,2-.08,.19-.16,.36-.35,.3-.07-.54-.24-1.1-.04-1.64,.21-.57,.28-1.15,.26-1.74-.01-.47,.1-.89,.38-1.28,.16-.22,.32-.48,.37-.74,.24-1.2,.51-2.4,.47-3.63-.06-2.41,.03-4.82,.18-7.22,.12-1.98,.21-3.97,.31-5.96,.11-2.3,.19-4.61,.33-6.9,.06-.94,.25-1.86,.38-2.8,.02-.17,.04-.34,.05-.52,0-.06-.06-.14-.11-.16-.05-.02-.16-.01-.2,.03-.15,.14-.31,.28-.4,.46-.37,.75-.75,1.5-1.07,2.28-.25,.61-.46,1.25-.6,1.89-.42,1.91-.78,3.83-1.2,5.74-.46,2.1-.63,4.21-.48,6.35,.09,1.29,.21,2.57,.3,3.86,.08,1.11,.13,2.23,.18,3.35,.01,.3,.07,.61-.13,.88,0,0,0-.02-.01-.03-1.2-5.35-2.51-10.6-4.2-15.75-.23-.7-.34-1.42-.41-2.15-.18-1.81-.34-3.62-.64-5.41-.56-3.36-1.51-6.6-3.26-9.57-.37-.63-.64-1.32-.99-1.96-.28-.52-.59-1.03-.95-1.49-.45-.57-1.02-.44-1.24,.25-.05,.16-.06,.34-.09,.51-.08,.48-.16,.96-.25,1.44-.03,.14,0,.36-.27,.36-.43-.74-.53-1.49-.17-2.29,.18-.41,.35-.84,.53-1.25,.77-1.76,1.4-3.57,1.83-5.45,.09-.41,.14-.83,.14-1.24,0-.65-.23-1.23-.7-1.7-.56-.56-1.13-.54-1.61,.06-.21,.27-.41,.57-.54,.89-.24,.58-.46,1.17-.63,1.77-.41,1.46-.51,2.95-.53,4.46,0,.3,.05,.6-.09,.89-.1-.05-.18-.07-.21-.11-.43-.68-.85-1.36-1.28-2.04-.83-1.33-1.65-2.67-2.51-3.98-.65-.99-1.35-1.95-2.03-2.93-.14-.2-.27-.41-.4-.61-.18-.29-.16-.57-.03-.89,.22-.55,.4-1.11,.56-1.68,.23-.8,.41-1.62,.64-2.43,.34-1.22,.53-2.45,.55-3.72,.04-2.32-.23-4.61-.89-6.83-.79-2.68-1.71-5.32-2.84-7.88-.13-.29-.25-.58-.41-.85-.1-.18-.23-.35-.38-.49-.22-.21-.59-.13-.68,.16-.1,.33-.19,.68-.2,1.02-.02,.7-.01,1.4,.02,2.09,.12,2.03,.11,4.05-.24,6.05-.09,.52-.15,1.04-.2,1.56-.17,2.14-.05,4.26,.6,6.32,.48,1.53,1,3.05,1.5,4.58,0,.03,0,.05,0,.08-.01-.01-.03-.03-.09-.08-.29-.29-.55-.53-.77-.79-1.14-1.32-2.24-2.67-3.4-3.97-2.69-3.03-5.61-5.82-8.56-8.59-.33-.31-.65-.63-.99-.94-.37-.34-.47-.76-.36-1.24,.49-2.16,.3-4.3-.15-6.43-.24-1.14-.7-2.18-1.33-3.16-.53-.82-1.01-1.67-1.42-2.55-1.01-2.15-1.58-4.16-2.74-6.62-.07-.15-.23-.16-.38-.12-1.09,.26-1.24,1.37-1.21,2.32,.04,1.29,.1,2.58,.22,3.86,.25,2.68,.67,5.33,1.9,7.77,.05,.1,.1,.17,.16,.28,.06,.12,.13,.21,.23,.38,.07,.13,.14,.25,.2,.35,.17,.28,.2,.3,.42,.67,.11,.18,.23,.28,.39,.51,.02,.02,.03,.04,.05,.06-.22-.09-.83-.89-.98-1.16-.08-.15-.09-.16-.16-.25-.12-.17-.22-.34-.35-.53-1.28-1.91-2.77-3.28-4.55-4.47-1.36-.91-2.21-1.52-3.58-2.41-.2-.13-.81-.47-1.18-.62-2.05-.83-4.03-1.76-5.75-3.19-.33-.27-.73-.41-1.16-.44-.45-.03-.76,.27-.68,.7,.06,.3,.17,.6,.3,.89,.43,.93,1.07,1.72,1.8,2.43,1.65,1.61,3.33,3.19,5.11,4.64,.51,.42,1.04,.83,1.62,1.15,1.78,.98,3.63,1.8,5.61,2.29,.41,.1,.81,.21,1.21,.34,.81,.25,1.56,.61,2.14,1.25,.4,.44,.84,.84,1.26,1.25,.99,.98,1.93,2.02,2.98,2.94,1.43,1.24,2.81,2.51,4.12,3.87,2.39,2.49,4.81,4.96,7.12,7.53,3.02,3.36,5.39,7.21,7.96,10.9,.06,.09,.07,.11,.15,.25,.01,.02,.05,.08,.07,.14,.02,.04,.07,.16,.1,.2-.02,0-.07-.03-.08-.04-.06-.04-.12-.09-.24-.2-1.86-1.66-3.74-3.05-5.7-4.37-2.46-1.66-4.83-3.43-7.02-5.45-.84-.78-1.73-1.51-2.64-2.22-1.06-.83-2.37-1.16-3.6-1.65-.4-.16-.77,.25-.64,.67,.08,.26,.22,.51,.36,.75,1.34,2.24,3.08,4.13,5.12,5.75,1.01,.8,2.05,1.57,3.01,2.43,1.36,1.22,2.85,2.22,4.47,3.08,1.82,.96,3.62,1.97,5.25,3.24,.8,.63,1.73,1.07,2.76,1.2,.65,.09,1.07,.4,1.4,.95,.82,1.38,1.59,2.79,2.11,4.32,.2,.59,.34,1.21,.4,1.83,.12,1.26,.4,2.48,.81,3.67,.74,2.2,1.82,4.22,3.2,6.09,.64,.87,1.27,1.75,1.87,2.65,.67,.99,1.21,2.04,1.54,3.19,.43,1.48,.86,2.95,1.28,4.42,.02,.06,.04,.13,.07,.23v.02c-.03-.07-.06-.13-.13-.24-.31-.53-.56-.99-.81-1.45-1.61-2.82-3.22-5.64-4.82-8.46-.07-.12-.14-.24-.22-.35-.06-.08-.14-.16-.22-.22-.26-.22-.65-.13-.79,.18-.06,.13-.09,.26-.12,.4-.22,1.1-.33,2.21-.16,3.33,.27,1.76,.53,3.52,.78,5.29,.39,2.81,1.34,5.41,2.86,7.81,.43,.68,.9,1.33,1.47,1.9,.65,.64,1.29,1.27,1.93,1.91,.52,.52,1,1.06,1.33,1.74,.64,1.32,1.28,2.64,1.92,3.96,.51,1.06,.69,2.19,.74,3.35,0,.13-.09,.27-.16,.41,0,0,0,0,0-.02-.04-.12-.05-.19-.08-.26-.82-1.78-1.46-3.62-1.91-5.53-.15-.63-.47-1.24-.8-1.8-.64-1.09-1.57-1.95-2.46-2.83-.07-.07-.17-.13-.25-.18-.35-.21-.65-.16-.93,.14-.26,.27-.36,.61-.38,.95-.03,.7-.07,1.4-.01,2.09,.26,3.3,.56,6.6,.83,9.9,.27,3.42,.86,6.78,1.67,10.1,.24,.98,.48,1.96,.71,2.95,.03,.11,.02,.4,0,.63-.02-.03-.04-.07-.07-.11-.73-1.34-1.41-2.6-2.11-3.85-2.36-4.16-4.95-8.19-7.56-12.2-.11-.18-.23-.35-.36-.51-.09-.11-.19-.21-.3-.29-.24-.17-.61-.1-.71,.17-.1,.26-.17,.54-.16,.81,.02,.8,0,1.61,.14,2.4,.35,2.07,.76,4.12,1.15,6.18,.05,.24,.13,.47,.2,.7,.6,1.93,1.19,3.87,1.83,5.8,.5,1.52,1.04,3.04,1.63,4.54,1.01,2.55,2.36,4.91,4.1,7.03,.95,1.16,1.94,2.29,2.92,3.43,.45,.53,.91,1.06,1.38,1.58,.36,.4,.45,.82,.33,1.35-.35,1.5-.61,3.01-.98,4.5-.52,2.1-1.05,4.2-1.36,6.35-.07,.48-.16,.97-.29,1.44-.57,2.09-1.12,4.18-1.75,6.25-.36,1.2-.87,2.36-1.27,3.55-.93,2.79-2.13,5.46-3.3,8.15-.17,.38-.38,.75-.57,1.12,.58-2.26,.94-4.55,1.15-6.86,.07-.77,.17-1.53,.29-2.29,.66-4.21,1.02-8.46,1.37-12.7,.06-.73,.11-1.46,.09-2.2-.03-1.68,.09-3.35,.4-5,.05-.27,.09-.56,.06-.83-.06-.69-.64-.95-1.2-.56-.11,.08-.23,.17-.31,.28-.55,.68-1.12,1.34-1.63,2.05-1.05,1.45-1.78,3.08-2.61,4.66-1.05,1.99-1.83,4.07-2.36,6.26-.27,1.12-.58,2.23-.84,3.35-.38,1.59-.84,3.18-1.09,4.8-.74,4.95-1.01,9.93-.87,14.93,.04,1.4,.16,2.8,.58,4.14,.17,.57,.03,1-.3,1.46-.95,1.34-1.86,2.7-2.8,4.05-.28,.4-.55,.83-.91,1.14-1.01,.85-2.06,1.65-3.14,2.49,.08-.31,.14-.61,.22-.9,.34-1.25,.74-2.48,1-3.74,.81-3.86,.62-7.71-.34-11.52-.29-1.16-.69-2.28-1.25-3.33-.74-1.37-1.15-2.84-1.39-4.37-.15-.93-.29-1.86-.44-2.79-.28-1.71-.96-3.28-1.59-4.87-.17-.42-.47-.49-.84-.24-.14,.1-.3,.21-.38,.35-.5,.8-1,1.6-1.21,2.54-.14,.61-.29,1.22-.39,1.84-1.01,6-1.13,12.03-.47,18.06,.37,3.4,1.02,6.77,1.85,10.09,.43,1.73,.79,3.48,1.09,5.23,.2,1.16-.09,2.2-1.13,2.95-.54,.39-1.02,.85-1.5,1.31-.61,.59-1.01,1.33-1.33,2.11-.04,.11-.01,.3,.07,.38,.07,.07,.27,.07,.37,.02,.34-.18,.68-.37,.98-.6,1.04-.82,2.08-1.65,3.08-2.52,.4-.35,.78-.53,1.31-.49,1.15,.07,2.23-.22,3.2-.81,.89-.54,1.75-1.15,2.57-1.8,.93-.73,1.82-1.52,2.72-2.3,.73-.64,1.47-1.3,2.15-1.99,1.48-1.48,2.34-3.27,2.62-5.36,.08-.62,.27-1.22,.42-1.83,.06-.24,.14-.47,.18-.71,.04-.25-.16-.49-.42-.5-.17,0-.36,0-.51,.08-1.14,.56-2.4,.74-3.59,1.13-.14,.05-.29,.03-.55,.04,.42-.58,.78-1.05,1.11-1.54,.29-.43,.66-.69,1.2-.72,.89-.05,1.69-.38,2.48-.77,1.94-.97,3.81-2.06,5.59-3.3,1-.7,2.1-1.1,3.29-1.27,.52-.07,1.04-.1,1.56-.14,.67-.04,1.44-.03,1.93-.6,.16-.18,.18-.35,.22-.56Zm-7.43-4.73c2.66-2.04,5.17-4.26,7.67-6.48,.62-.55,1.36-1.14,1.95-1.5,.22-.14,.16,.24,.13,.37-.15,.54-.31,1.07-.45,1.61-.24,.97-.68,1.82-1.35,2.56-1.45,1.61-3.07,3.04-4.74,4.41-.64,.53-1.32,1.04-1.96,1.57-.59,.49-1.17,.99-1.74,1.5-.68,.61-1.38,1.18-2.18,1.61-.43,.23-.87,.43-1.4,.43,.02-.36,.32-.47,.52-.63,1.45-1.15,2.92-2.27,4.35-3.43,.51-.41,.95-.92,1.41-1.39,.09-.1,.15-.23,.2-.36,.05-.13-.2-.39-.32-.33-.21,.11-.42,.23-.6,.38-1.43,1.23-2.85,2.46-4.27,3.69-.13,.11-.26,.23-.41,.33-.12,.09-.27,.28-.41,.08-.04-.06,.08-.25,.13-.37,.88-1.74,2.07-2.99,3.48-4.06ZM192.92,49.94c-1.91-1.35-3.81-2.71-5.88-3.8-.25-.13-.5-.25-.76-.35-.07-.03-.25,.02-.27,.07-.04,.11-.05,.27,0,.37,.05,.12,.18,.21,.3,.28,.58,.38,1.16,.78,1.76,1.12,1.6,.92,3.11,1.98,4.58,3.1,.11,.08,.19,.19,.36,.37-.37,.06-.6-.1-.83-.16-.24-.06-.47-.14-.69-.23-.71-.29-1.41-.6-2.13-.88-1.29-.51-2.34-1.38-3.38-2.25-1.12-.94-2.2-1.93-3.3-2.9-1.53-1.29-3.29-3.4-3.33-3.98-.02-.26,.46-.04,.66,.07,.18,.1,.36,.22,.51,.35,.92,.76,1.59,1.12,2.46,1.56,1.34,.68,2.67,1.36,4,2.06,1.36,.72,2.68,1.49,3.89,2.45,1.29,1.02,2.41,2.21,3.45,3.48,.06,.08,.08,.19,.17,.41-.59-.43-1.08-.79-1.58-1.15Zm6.23,4.92c-.47-.65-.9-1.33-1.4-1.95-1.52-1.93-2.54-4.07-2.97-6.5-.41-2.34-.73-4.69-.81-7.06-.01-.41-.07-.84,.14-1.23,.03-.06,.11-.14,.15-.13,.08,.02,.2,.07,.23,.13,.46,1.13,.98,2.24,1.35,3.4,.48,1.48,1.17,2.83,2.03,4.11,.1,.14,.19,.3,.28,.44,.78,1.23,1.22,2.45,1.42,3.73,.16,1.03,.28,2.07,.37,3.11,.07,.83-.08,1.64-.28,2.6-.23-.3-.39-.47-.52-.66Zm16.61,16.91c-.61-1.75-1.22-3.49-1.81-5.24-.65-1.91-.84-3.88-.62-5.89,.11-.97,.23-1.94,.36-2.91,.21-1.6,.24-3.2,.06-4.8-.06-.55-.09-1.11-.13-1.67,0-.16,.02-.33,.04-.6,.14,.14,.22,.2,.26,.27,.48,1.12,.96,2.24,1.43,3.37,.25,.61,.46,1.24,.7,1.86,.9,2.53,1.3,5.01,1.51,7.51,.14,1.78-.12,3.55-.54,5.29-.22,.91-.47,1.82-.72,2.73-.04,.16-.12,.32-.23,.6-.14-.24-.24-.37-.29-.52Zm3.61,9.69c-.39-.23-.79-.45-1.14-.73-1.04-.82-2.04-1.69-3.1-2.48-.87-.64-1.79-1.2-2.7-1.78-.2-.13-.44-.21-.67-.28-.07-.02-.21,.05-.25,.11-.04,.07-.03,.21,.02,.28,.1,.14,.22,.28,.36,.37,.81,.54,1.64,1.06,2.46,1.58,.96,.65,1.75,1.2,2.54,2.06-.49-.25-.82-.4-1.14-.58-.88-.5-1.73-1.06-2.63-1.51-1.54-.77-2.89-1.82-4.2-2.91-1.49-1.26-2.95-2.56-4.43-3.83-1.37-1.17-2.37-2.62-3.33-4.19,1.25,.26,2.26,.82,3.16,1.62,1.04,.93,2.08,1.85,3.11,2.79,.7,.64,1.43,1.22,2.2,1.76,.97,.68,1.88,1.45,2.82,2.16,.42,.31,.86,.6,1.3,.87,1.96,1.15,3.79,2.47,5.48,3.99,.23,.21,.44,.45,.65,.68,.04,.04,.1,.13,.23,.3-.29-.07-.57-.18-.73-.27Zm4.65,3.8c-.09-.08-.18-.13-.18-.18,.04-1.36,.09-2.71,.14-4.07,.07-1.61,.51-2.97,1.08-4.29,.04-.1,.09-.19,.14-.28,.15-.22,.29-.36,.45-.38,.29-.03,.51,.17,.64,.45,.24,.54,.24,1.09,.12,1.64-.16,.71-.31,1.44-.56,2.12-.52,1.48-1.14,2.92-1.56,4.44-.05,.19-.18,.35-.27,.54Zm7.24,15.65c-.76-1.62-1.29-3.32-1.84-5.01-.11-.33-.23-.66-.39-.96-.04-.08-.24-.11-.36-.1-.07,0-.17,.14-.18,.22-.02,.17,.01,.35,.04,.52,.27,1.55,.73,3.05,1.33,4.51,.04,.14,.03,.15,.01,.16-.22-.19-.31-.23-.43-.38-1.02-1.34-1.9-2.76-2.41-4.38-.36-1.13-.76-2.25-1.07-3.39-.56-2.07-.52-4.14,.08-6.2,.03-.09,.13-.33,.18-.36,.05-.03,.24,.3,.31,.44,.9,1.77,1.8,3.55,2.7,5.32,.54,1.06,.93,2.18,1.21,3.34,.45,1.87,.92,3.73,1.08,5.65,.02,.31,.04,.62,.07,.94-.28,.04-.27-.19-.34-.33Zm2.87,18.99c-1.35-2.67-2.45-5.46-3.55-8.24-.12-.29-.22-.59-.37-.86-.08-.14-.24-.32-.41-.19-.11,.08-.13,.29-.16,.45-.01,.09,.04,.2,.08,.3,.88,2.27,1.76,4.54,2.67,6.8,.22,.54,.55,1.04,.83,1.56,.01,.03,.02,.06,.03,.08-1.62-1.24-2.72-2.84-3.51-4.67-.72-1.67-1.21-3.42-1.58-5.2-.3-1.47-.56-2.95-.82-4.42-.2-1.17-.22-2.36-.14-3.54,.01-.16,.02-.48,.11-.52,.06-.03,.18,.15,.21,.2,.52,1.22,1.26,2.32,1.96,3.45,.86,1.39,1.69,2.8,2.48,4.24,.95,1.72,1.56,3.57,1.87,5.52,.24,1.51,.5,3.03,.73,4.54,.07,.41,.09,.83,.13,1.25-.03,.08-.03,.11-.03,.13-.18-.3-.38-.58-.53-.88Zm1.24,1.32c.04-1.26-.08-2.5-.36-3.74-.26-1.15-.43-2.25-.6-3.48-.03-.15-.05-.27-.07-.38-.02-.07-.03-.13-.04-.18,.02,.02,.04,.04,.05,.07,.05,.14,.08,.19,.12,.32,.12,.37,.23,.65,.3,.98,.47,2,.94,3.99,1.36,5.99,.25,1.22,.41,2.47,.58,3.77,0,.03,0,.05,0,.07-.5-.72-.93-1.53-1.23-2.29-.14-.34-.13-.76-.12-1.13Zm2.75,2.77c-.17-.5-.07-.95-.07-1.39,0-.45,.02-.91,.02-1.36s0-.91-.02-1.36c-.01-.45-.04-.91-.06-1.36-.02-.45-.05-.91-.08-1.36-.03-.45-.07-.9-.1-1.36-.08-1.2-.15-2.24-.2-3.28-.08-1.61,.05-3.2,.38-4.78,.48-2.28,.91-4.58,1.37-6.87,.04-.2,.11-.39,.27-.57,0,.19,.02,.38,0,.57-.13,2.4-.25,4.8-.39,7.2-.11,1.88-.22,3.76-.35,5.63-.11,1.5-.15,2.99-.08,4.49,.07,1.53,.11,3.07-.19,4.58-.08,.4-.13,.81-.49,1.19Zm6.14,.08c.63-.29,1.32-.45,1.98-.65,.2-.06,.41-.08,.62-.07,.43,.01,.72,.29,.72,.73,.01,.76-.23,1.44-.69,2.04-.41,.53-.9,.97-1.48,1.31-.39,.23-.79,.45-1.19,.66-1.82,.95-3.18,2.37-4.12,4.18-.4,.77-.71,1.59-1.06,2.39-.15,.34-.23,.71-.57,1.08-.21-.59-.17-1.11-.23-1.62-.02-.14,0-.15,0-.15,0,.02,.04,.02,.08,.02,.61,.04,.61,.04,.81-.39,.49-1.08,.98-2.16,1.49-3.23,.45-.95,1.04-1.81,1.89-2.48,.15-.12,.24-.33,.33-.51,.06-.12-.09-.28-.23-.25-.1,.02-.22,.03-.3,.09-.72,.51-1.38,1.05-1.78,1.87-.63,1.28-1.31,2.55-1.96,3.82-.04,.09-.11,.16-.17,.24-.2-.06-.17-.22-.17-.35,.01-1.35,.39-2.59,.95-3.82,1.07-2.32,2.83-3.86,5.07-4.91Zm-11.94,10.69c-.36-3.09-.65-6.18-.98-9.27-.15-1.39-.21-2.78-.14-4.18,0-.13,.05-.27,.1-.4,.02-.04,.11-.08,.17-.08,.06,0,.13,.04,.19,.09,1.33,1.22,2.51,2.54,3,4.33,.46,1.69,1.02,3.35,1.73,4.94,1.19,2.67,1.32,4.68,1.44,7.55,.05,1.08,.02,2.16,.04,3.25,0,.24-.04,.57,.1,.71,.46,.47,.25,.96,.19,1.47-.25,2.01-.54,4.01-.72,6.03-.11,1.25-.04,2.51-.05,3.76,0,.28,.02,.21,.02,.6,0,.16,0,.33-.02,.41-.03,0-.06,0-.09,0-.17-.31-.21-.39-.28-.58-.67-1.91-1.34-3.82-1.99-5.74-1.42-4.19-2.21-8.52-2.71-12.9Zm5.05,25.03c.02,.3,.02,.4,.01,.5,0,.24-.01,.39-.13,.59-.01-.25-.04-.44-.06-.69-.03-.32-.04-.44-.06-.57-.25-2.3-.79-4.54-1.32-6.78,0-.04-.02-.07-.02-.1,.1,.1,.22,.17,.25,.24,.94,2.2,1.19,4.4,1.32,6.81Zm-.81,2.53c-.07-.16-.2-.23-.27-.33-.94-1.39-2.09-2.61-3.19-3.88-2.13-2.44-3.88-5.12-4.99-8.17-.98-2.69-1.93-5.39-2.87-8.1-.57-1.65-.96-3.36-1.26-5.08-.2-1.17-.43-2.33-.63-3.51-.11-.69-.18-1.38-.26-2.08-.01-.09,.03-.19,.05-.29,.25-.03,.29,.19,.37,.31,2.64,4.32,5.31,8.62,7.9,12.97,1.38,2.31,2.4,4.8,3.19,7.39,.61,1.98,1.08,3.97,1.41,6.01,.25,1.52,.53,3.02,.64,4.56-.04,.16-.01,.18,.01,.2-.04,0-.07,0-.11,0Zm1.9-1.55c.29-.74,.74-2.08,.89-2.51,.54-1.55,.94-3.15,1.22-4.76,.32-1.82,.55-3.66,.73-5.49,.16-1.56,.19-3.13,.27-4.7,.02-.33-.22-.66-.31-.56-.12,.14-.23,.34-.25,.53-.22,1.84-.49,3.67-.61,5.51-.23,3.55-1.23,7.05-2.2,10.45-.09-1.11-.18-2.22-.26-3.34-.02-.24,0-.49,.05-.73,.19-.79,.18-1.59,.13-2.39-.11-1.68-.02-3.34,.21-5.01,.2-1.45,.36-2.91,.53-4.36,.3-2.59,1.11-5.03,2.06-7.44,.36-.91,.99-2.13,1.67-2.32,.29-.08,.23,.29,.22,.44-.09,1.26,.1,2.5,.29,3.74,.61,3.94,.86,7.9,.58,11.89-.11,1.58-.48,3.1-1,4.58-.29,.82-.7,1.59-1.22,2.31-.83,1.16-1.64,2.34-2.47,3.5-.16,.23-.34,.44-.53,.64Zm8.46-2.28c.15-.4,.2-.55,.33-.82,.03,.01,.06,.02,.08,.04-.06,.16-.09,.25-.15,.46-.15,.48-.22,.76-.31,1.09-.21,.84-.55,1.63-.9,2.42,.25-1.12,.54-2.11,.94-3.18Zm-14.18,24c.16-.19,.33-.37,.52-.51,1.47-1.09,2.65-2.48,3.85-3.83,.76-.86,1.38-1.84,2.01-2.8,.56-.84,1.07-1.72,1.6-2.58,.03,0,.08,.02,.08,.02,0,0-.01,.07,0,.1,0,.13,.03,.23,.09,.26,.06,.04,.23,0,.26-.05,.41-.61,.85-1.2,1.19-1.85,1.05-2.01,2.11-4.02,3.08-6.08,.63-1.36,1.08-2.8,1.65-4.19,.63-1.52,1.13-3.07,1.59-4.66,.24,.91,.24,1.83,.08,2.73-.23,1.23-.53,2.45-1.02,3.62-.47,1.13-1.02,2.21-1.66,3.26-.77,1.25-1.43,2.56-2.18,3.82-1.2,2.05-2.63,3.95-4.14,5.79-.93,1.13-1.84,2.28-2.76,3.42-1.24,1.38-2.41,2.57-3.75,3.59-.19,.14-.4,.26-.78,.51,.16-.31,.21-.46,.3-.57Zm-23.1,36.17c-.22-.08-.15-.28-.15-.44-.02-.94,0-1.88-.05-2.83-.1-2.44-.24-4.88-.33-7.32-.03-.9,.03-1.81,.04-2.72,0-.17-.02-.35-.05-.51-.02-.13-.23-.17-.34-.08-.13,.1-.21,.19-.25,.32-.18,.46-.19,.95-.17,1.44,.13,2.93,.26,5.86,.39,8.78,.04,.91,.07,1.81,.1,2.72-.02,.13-.02,.15-.02,.15-.07-.14-.16-.25-.19-.37-.52-2.21-1.09-4.4-1.42-6.65-.2-1.38-.44-2.76-.69-4.13-.53-2.93-.75-5.89-.67-8.86,.06-2.16,.15-4.32,.28-6.48,.13-2.27,.6-4.49,1.1-6.7,.05-.24,.12-.48,.23-.69,.16-.28,.29-.47,.63-.74,.14,.27,.31,.53,.41,.82,.69,1.98,1.25,3.99,1.51,6.08,.17,1.39,.61,2.72,1.15,4.02,.2,.48,.41,.96,.61,1.45,1.58,3.76,1.94,7.69,1.55,11.71-.18,1.81-.67,3.57-1.18,5.3-.81,2.75-.95,3.05-2.49,5.74Zm12.99-16.34c-.79,1.78-1.73,3.46-2.78,5.12-.51,.81-1.11,1.4-1.57,2.08-.15,.22-.36,.41-.58,.59,.53-.91,1.14-1.74,1.77-2.58,1.26-1.7,2.17-3.48,3.17-5.2Zm-1.77,1.26c.03-.63,.2-1.22,.32-1.82,.42-2.12,.9-4.23,1.26-6.37,.25-1.48,.35-2.98,.52-4.47,.12-1.1,.21-2.04,.3-2.97,.02-.21,.02-.43-.21-.54-.18-.09-.4,.08-.48,.42-.08,.34-.11,.69-.15,1.03-.27,2.18-.5,4.37-.81,6.55-.21,1.41-.54,2.81-.81,4.21-.18,.92-.37,1.85-.55,2.77-.05,.26-.09,.53-.28,.79-.02-.19-.06-.38-.07-.58-.28-4.61-.02-9.21,.44-13.8,.22-2.16,.72-4.27,1.13-6.39,.43-2.23,1.23-4.37,1.89-6.53,.19-.63,.45-1.25,.67-1.87,1.08-3.03,2.72-5.73,4.72-8.23,.08-.1,.17-.22,.27-.25,.25-.06,.2,.18,.18,.35,0,.04-.03,.18-.04,.21-.47,2.45-.49,4.82-.62,7.29-.07,1.36-.23,2.71-.36,4.07-.43,4.52-1,9.02-1.69,13.51-.1,.66-.17,1.32-.25,1.98-.12,.98-.37,1.92-.83,2.8-.64,1.24-1.28,2.49-1.95,3.71-.69,1.26-1.41,2.49-2.13,3.73-.09,.16-.13,.41-.46,.42Zm-12.63,20.5c-.76,.59-1.43,1.33-2.28,1.77-.17,.09-.18,.09-.24,.11,.02-.04,.03-.07,.05-.11,.68-.85,1.5-1.47,2.34-2.06,.06-.04,.18,0,.32,0-.08,.12-.11,.22-.18,.28Zm12.77-14.01c.51-.12,1.01-.29,1.51-.43,.15-.04,.45-.15,.5-.09,.06,.07,.03,.27,0,.37-.17,.75-.38,1.49-.53,2.24-.29,1.48-.98,2.73-1.96,3.87-1.78,2.04-3.87,3.71-6.03,5.31-.39,.29-.82,.53-1.23,.79-1.24,.77-2.6,.96-4.02,.86-.43-.03-.54-.19-.39-.63,.24-.69,.47-1.4,.79-2.05,.67-1.38,1.27-2.8,2.25-4,.24-.3,.49-.59,.73-.89,.95-1.02,1.87-1.82,2.88-2.52,.2-.14,.4-.28,.58-.45,1.4-1.29,3.1-1.97,4.93-2.38Zm3.65-11.06c-.15,.28-.3,.55-.45,.83-.15,.28-.3,.55-.45,.83-.08,.14-.09,.17-.11,.2-.06,.11-.12,.08-.07-.02,.43-.88,.88-1.74,1.37-2.59,0,.28-.17,.51-.29,.75Zm10.55,2.08c-.79,.11-1.58,.21-2.36,.31-.51,.07-1.03,.12-1.54,.2-.21,.04-.27,.07-.34,.09-.16,.05-.19,.07-.27,.1-.16,.06-.22,.09-.29,.13-.23,.11-.38,.23-.54,.33-1.81,1.12-3.62,2.23-5.44,3.32-.41,.25-.87,.43-1.33,.58-.19,.06-.25,.08-.32,.1-.16,.05-.18,.06-.25,.08-.16,.04-.21,.04-.29,.08-.15,.07-.26,.08-.33,.1-.16,.05-.19,.07-.27,.08-.13,.02-.12-.01-.12-.01,.07-.05,.13-.08,.19-.1,.17-.07,.22-.07,.28-.09,.16-.05,.22-.07,.29-.09,.18-.07,.22-.07,.29-.09,.16-.05,.22-.07,.28-.11,.28-.14,.48-.25,.69-.36,1.46-.79,2.9-1.6,4.25-2.57,.73-.53,1.51-.97,2.36-1.28,.2-.06,.27-.1,.33-.13,.21-.07,.27-.1,.35-.13,.17-.07,.15-.06,.24-.1,.17-.07,.28-.13,.36-.16,1.26-.51,2.48-.79,3.86-.63,.1,.01,.23,.02,.29,.12,.12,.22-.23,.23-.37,.25Zm-1.11-45.03c0,.08-.08,.2-.16,.24-.05,.03-.2-.04-.24-.1-.14-.24-.28-.48-.37-.74-1.29-3.35-2.71-6.66-4.25-9.9-.18-.37-.27-.79-.37-1.19-.02-.09,.09-.28,.18-.31,.1-.03,.29,.03,.36,.12,.17,.22,.3,.47,.42,.72,.3,.63,.56,1.28,.87,1.91,1.15,2.39,2.18,4.83,3.09,7.4,.15,.4,.3,.72,.39,1.05,.07,.26,.08,.54,.09,.82Zm2-10.13c-.11-.97-.23-1.94-.31-2.92-.16-1.95-.28-3.9-.47-5.84-.12-1.18-.34-2.35-.52-3.52-.06-.42-.16-.83-.02-1.24,.03-.08,.13-.18,.2-.19,.09-.01,.22,.04,.27,.1,.09,.14,.17,.3,.2,.47,.1,.58,.22,1.17,.27,1.76,.32,3.23,.62,6.46,.94,9.77,.04,.6,.07,1.12,.09,1.64,0,.17-.02,.35-.07,.5-.02,.07-.15,.13-.24,.15-.05,.01-.15-.05-.17-.1-.07-.19-.16-.39-.18-.59Zm-24.81,74.15c.95-.92,1.93-1.81,2.87-2.73,1.07-1.05,2.28-1.94,3.54-2.75,.41-.26,.85-.47,1.3-.66,.26-.11,.65-.36,.82-.05,.14,.25-.27,.43-.49,.58-.43,.29-.9,.54-1.32,.84-.79,.56-1.56,1.15-2.41,1.78-1.47,1.39-2.88,2.74-4.3,4.07-.2,.19-.42,.36-.65,.51-.06,.04-.22,0-.28-.05-.07-.05-.11-.18-.1-.27,.02-.13,.09-.27,.17-.37,.27-.31,.54-.62,.84-.91Zm4.81-151.93c-.01,.55-.14,.83-.33,.77-.36-.12-.3-.46-.29-.71,.01-.39,.01-.72,.01-.99-.01-1.34-.04-2.38-.12-3.71-.05-.8-.1-1.6-.13-2.41-.02-.52,.01-1.05,.29-1.52,.04-.07,.17-.14,.24-.13,.08,.01,.18,.11,.21,.19,.04,.13,.03,.27,.03,.41,0,.63,.01,1.25,.03,1.96,.14,1.05,.17,2.02,.11,3-.06,1.05-.03,2.1-.06,3.14Zm-17.18-16.45c.2,.63,.46,1.24,.71,1.93,.01,.2,0,.34,0,.47-.13-.01-.28,.02-.38-.05-.14-.09-.26-.23-.34-.37-.16-.31-.3-.63-.41-.96-.52-1.55-1.04-3.1-1.51-4.66-.17-.56-.21-1.16-.28-1.74-.01-.09,.12-.21,.18-.31,.11,.07,.27,.12,.33,.22,.13,.25,.21,.51,.29,.78,.48,1.57,.94,3.13,1.43,4.69Z"/>
    <path class="cls-1" d="M29.27,199.84c.49,.57,1.26,.55,1.93,.59,.52,.03,1.05,.06,1.56,.13,1.19,.16,2.29,.56,3.29,1.26,1.78,1.24,3.65,2.32,5.6,3.29,.79,.39,1.6,.72,2.48,.77,.54,.03,.91,.28,1.21,.71,.33,.49,.69,.95,1.12,1.53-.26-.02-.42,0-.55-.04-1.19-.39-2.45-.56-3.6-1.12-.15-.07-.34-.08-.51-.08-.26,0-.46,.25-.42,.5,.04,.24,.12,.47,.18,.71,.15,.61,.34,1.21,.43,1.83,.28,2.08,1.15,3.87,2.64,5.35,.69,.69,1.42,1.34,2.16,1.98,.89,.78,1.79,1.57,2.72,2.29,.82,.64,1.68,1.25,2.58,1.79,.97,.59,2.06,.88,3.21,.8,.53-.04,.92,.15,1.31,.49,1,.87,2.05,1.69,3.09,2.51,.3,.24,.64,.42,.98,.6,.1,.05,.3,.05,.37-.02,.08-.08,.11-.28,.07-.38-.33-.77-.73-1.51-1.34-2.1-.48-.46-.96-.92-1.5-1.31-1.04-.75-1.34-1.79-1.14-2.95,.3-1.75,.65-3.51,1.07-5.23,.83-3.33,1.46-6.7,1.82-10.1,.64-6.03,.5-12.06-.53-18.06-.11-.62-.26-1.23-.4-1.84-.22-.94-.72-1.74-1.22-2.54-.09-.14-.24-.25-.38-.35-.37-.25-.67-.18-.83,.24-.63,1.59-1.31,3.17-1.58,4.88-.15,.93-.29,1.86-.43,2.8-.24,1.53-.65,3-1.38,4.38-.56,1.05-.95,2.18-1.24,3.33-.95,3.82-1.12,7.66-.3,11.52,.27,1.26,.68,2.49,1.02,3.73,.08,.29,.15,.58,.22,.9-1.08-.85-2.14-1.64-3.15-2.48-.37-.31-.64-.74-.92-1.13-.94-1.34-1.86-2.7-2.81-4.04-.33-.46-.48-.89-.31-1.46,.41-1.34,.53-2.74,.56-4.14,.13-5-.16-9.98-.91-14.93-.25-1.62-.72-3.2-1.1-4.79-.27-1.12-.58-2.23-.85-3.35-.54-2.18-1.32-4.27-2.38-6.25-.84-1.57-1.57-3.2-2.63-4.65-.51-.7-1.08-1.37-1.63-2.04-.09-.11-.2-.2-.31-.28-.56-.39-1.14-.13-1.2,.56-.02,.27,.01,.56,.06,.83,.31,1.65,.44,3.32,.41,5-.01,.73,.04,1.47,.1,2.2,.36,4.24,.74,8.49,1.41,12.7,.12,.76,.23,1.52,.3,2.28,.22,2.31,.58,4.6,1.17,6.86-.19-.37-.4-.74-.57-1.12-1.18-2.69-2.39-5.36-3.33-8.14-.4-1.19-.92-2.34-1.28-3.54-.63-2.07-1.2-4.16-1.77-6.25-.13-.47-.22-.95-.29-1.44-.31-2.15-.85-4.24-1.38-6.34-.37-1.49-.65-3-1-4.5-.12-.53-.04-.95,.32-1.35,.47-.52,.92-1.05,1.37-1.58,.97-1.14,1.96-2.27,2.91-3.44,1.73-2.13,3.08-4.49,4.08-7.04,.59-1.49,1.11-3.01,1.61-4.54,.63-1.93,1.21-3.87,1.81-5.8,.07-.23,.16-.47,.2-.71,.39-2.06,.79-4.11,1.13-6.18,.13-.79,.12-1.6,.13-2.4,0-.27-.07-.55-.17-.81-.1-.27-.48-.34-.71-.17-.11,.08-.21,.18-.3,.29-.13,.16-.25,.34-.36,.51-2.59,4.02-5.17,8.05-7.52,12.22-.7,1.25-1.37,2.51-2.1,3.86-.03,.05-.05,.08-.07,.11,0-.23-.02-.53,0-.63,.23-.99,.47-1.97,.7-2.95,.8-3.33,1.38-6.69,1.64-10.11,.25-3.3,.54-6.6,.79-9.91,.05-.69,.01-1.39-.02-2.09-.02-.35-.12-.68-.38-.95-.28-.3-.59-.35-.93-.14-.09,.05-.18,.11-.25,.18-.89,.89-1.82,1.75-2.45,2.84-.33,.57-.65,1.18-.8,1.81-.45,1.91-1.08,3.75-1.9,5.53-.03,.06-.04,.13-.08,.26,0,0,0,.01,0,.02-.07-.14-.17-.28-.16-.41,.05-1.16,.22-2.29,.73-3.35,.63-1.32,1.28-2.64,1.91-3.96,.32-.67,.8-1.22,1.32-1.74,.64-.64,1.28-1.28,1.93-1.92,.57-.57,1.03-1.22,1.46-1.9,1.51-2.4,2.45-5,2.84-7.82,.24-1.77,.5-3.53,.76-5.29,.17-1.12,.05-2.23-.17-3.33-.03-.14-.06-.27-.12-.4-.14-.31-.53-.4-.79-.18-.08,.07-.16,.14-.22,.22-.08,.11-.15,.23-.22,.35-1.6,2.82-3.2,5.65-4.8,8.47-.26,.45-.5,.92-.81,1.45-.07,.1-.1,.16-.13,.24v-.02c.03-.11,.05-.17,.07-.23,.42-1.47,.84-2.95,1.27-4.43,.33-1.15,.87-2.21,1.53-3.2,.6-.9,1.23-1.78,1.87-2.65,1.37-1.87,2.45-3.9,3.19-6.1,.4-1.2,.68-2.41,.79-3.67,.06-.62,.2-1.24,.39-1.83,.51-1.53,1.27-2.94,2.09-4.33,.33-.55,.75-.87,1.4-.96,1.02-.14,1.95-.58,2.75-1.21,1.63-1.28,3.43-2.29,5.24-3.26,1.61-.86,3.1-1.87,4.46-3.09,.96-.86,2-1.63,3.01-2.43,2.04-1.62,3.77-3.52,5.11-5.76,.14-.24,.28-.48,.36-.75,.13-.43-.24-.83-.64-.67-1.23,.49-2.54,.82-3.6,1.66-.9,.71-1.79,1.45-2.63,2.23-2.18,2.02-4.54,3.8-7,5.47-1.96,1.33-3.84,2.72-5.69,4.39-.12,.11-.18,.15-.24,.2-.01,0-.06,.04-.08,.04,.03-.04,.08-.16,.1-.2,.02-.06,.06-.12,.07-.14,.08-.14,.08-.15,.14-.25,2.56-3.7,4.92-7.56,7.93-10.92,2.3-2.58,4.71-5.05,7.1-7.55,1.3-1.36,2.68-2.64,4.1-3.88,1.05-.92,1.99-1.96,2.97-2.95,.42-.42,.86-.82,1.26-1.26,.59-.65,1.33-1,2.14-1.26,.4-.13,.8-.24,1.21-.34,1.98-.5,3.83-1.32,5.6-2.31,.57-.32,1.1-.74,1.61-1.16,1.78-1.46,3.46-3.04,5.1-4.66,.72-.71,1.36-1.5,1.79-2.43,.13-.28,.24-.58,.3-.89,.08-.43-.23-.73-.68-.7-.43,.03-.83,.17-1.16,.45-1.71,1.43-3.69,2.36-5.74,3.2-.37,.15-.98,.49-1.18,.62-1.37,.89-2.22,1.51-3.58,2.43-1.78,1.2-3.26,2.57-4.54,4.48-.13,.2-.23,.36-.35,.53-.07,.1-.08,.11-.16,.25-.16,.27-.76,1.07-.98,1.16,.01-.02,.03-.04,.05-.06,.16-.23,.28-.33,.39-.51,.22-.36,.25-.39,.42-.67,.06-.1,.13-.23,.2-.35,.09-.17,.16-.26,.22-.38,.06-.11,.11-.18,.16-.28,1.22-2.45,1.64-5.09,1.87-7.78,.11-1.28,.16-2.57,.2-3.86,.03-.95-.13-2.07-1.22-2.32-.15-.04-.31-.03-.38,.12-1.14,2.46-1.72,4.48-2.72,6.63-.41,.88-.89,1.74-1.41,2.56-.63,.99-1.08,2.03-1.32,3.17-.44,2.14-.62,4.28-.13,6.43,.11,.48,0,.9-.36,1.24-.33,.31-.65,.63-.98,.94-2.94,2.78-5.85,5.59-8.53,8.62-1.15,1.31-2.26,2.66-3.39,3.98-.22,.26-.48,.5-.77,.79-.06,.05-.08,.07-.09,.08,0-.03,0-.05,0-.08,.5-1.53,1.01-3.05,1.49-4.58,.64-2.06,.76-4.18,.58-6.32-.04-.52-.11-1.04-.2-1.56-.36-2.01-.37-4.03-.26-6.05,.04-.69,.04-1.39,.02-2.09-.01-.34-.1-.69-.21-1.02-.09-.3-.46-.38-.68-.16-.15,.14-.28,.32-.38,.49-.15,.27-.28,.56-.4,.85-1.13,2.56-2.04,5.2-2.82,7.89-.65,2.23-.91,4.51-.87,6.83,.03,1.26,.22,2.5,.56,3.72,.23,.8,.42,1.62,.65,2.43,.16,.57,.34,1.13,.56,1.68,.13,.32,.15,.6-.03,.89-.13,.21-.26,.41-.4,.61-.67,.98-1.37,1.94-2.02,2.93-.85,1.32-1.67,2.66-2.5,3.99-.42,.68-.84,1.37-1.27,2.05-.03,.05-.11,.06-.21,.11-.15-.29-.09-.6-.09-.89-.02-1.5-.13-3-.54-4.46-.17-.6-.39-1.19-.63-1.77-.13-.32-.33-.62-.54-.89-.48-.61-1.05-.62-1.61-.06-.47,.47-.7,1.05-.7,1.7,0,.42,.05,.84,.14,1.24,.44,1.88,1.08,3.68,1.85,5.45,.18,.41,.35,.84,.53,1.25,.36,.79,.27,1.55-.16,2.29-.27,0-.24-.22-.27-.36-.09-.48-.17-.96-.25-1.44-.03-.17-.04-.35-.09-.51-.22-.69-.79-.82-1.24-.24-.36,.46-.67,.98-.95,1.5-.35,.64-.62,1.33-.98,1.97-1.73,2.97-2.68,6.21-3.23,9.58-.29,1.79-.45,3.6-.62,5.41-.07,.73-.18,1.45-.41,2.15-1.67,5.16-2.97,10.41-4.15,15.76,0,0,0,.02-.01,.03-.2-.26-.15-.58-.14-.88,.04-1.12,.09-2.23,.17-3.35,.08-1.29,.2-2.58,.28-3.86,.14-2.14-.04-4.25-.5-6.35-.42-1.91-.79-3.83-1.21-5.74-.14-.65-.35-1.28-.6-1.89-.32-.78-.7-1.52-1.08-2.27-.09-.18-.25-.32-.4-.46-.04-.04-.14-.05-.2-.03-.05,.02-.1,.11-.1,.16,0,.17,.02,.35,.05,.52,.13,.93,.33,1.86,.39,2.8,.15,2.3,.24,4.6,.36,6.9,.1,1.99,.2,3.97,.33,5.96,.16,2.4,.25,4.81,.2,7.22-.03,1.23,.25,2.43,.49,3.62,.05,.26,.21,.52,.37,.74,.29,.39,.4,.81,.39,1.27-.01,.6,.06,1.17,.27,1.74,.2,.54,.03,1.1-.04,1.64-.19,.06-.27-.1-.36-.29-.31-.7-.69-1.38-1.14-2-1.62-2.22-3.88-3.46-6.52-4.05-.14-.03-.27-.05-.41-.06-.95-.08-1.67,.47-1.71,1.42-.02,.47,.09,.98,.25,1.43,.35,1.01,.98,1.86,1.86,2.47,.6,.42,1.24,.78,1.89,1.12,1.25,.66,2.37,1.5,3.15,2.69,.48,.73,.82,1.54,1.21,2.32,.14,.28,.24,.42,.36,.87,.32,1.13,.75,2.08,.55,3.29,0,0,0,.01,0,.02-.14-.26-.31-.52-.39-.8-.33-1.08-.88-2.05-1.42-3.03-.45-.83-1.17-1.38-1.94-1.87-.41-.27-.76-.11-.82,.4-.06,.48-.09,.99,0,1.46,.18,.95,.05,1.86-.11,2.8-.69,3.97-.92,7.97-.7,12,.09,1.57,.44,3.11,.85,4.63,.36,1.34,1.07,2.5,1.88,3.6,1.16,1.57,2.34,3.13,3.5,4.7,.52,.71,.86,1.48,1.05,2.37,.53,2.53,1.14,5.04,1.75,7.55,.35,1.42,.76,2.83,1.13,4.25,.19,.74,.35,1.49,.53,2.24,.11,.44,.24,.87,.37,1.31,.09,.32,.2,.64,.37,1.19-.63-.57-1.11-.98-1.55-1.41-1.66-1.61-3.12-3.39-4.27-5.4-1.15-2-2.5-3.88-3.45-5.99-.9-2.01-1.74-4.04-2.57-6.08-.25-.61-.35-1.28-.58-1.9-.61-1.64-1.24-3.26-1.88-4.89-.24-.62-.52-1.22-.81-1.82-.2-.41-.44-.79-.7-1.17-.16-.24-.45-.33-.63-.23-.25,.13-.31,.36-.31,.62,0,.1,.03,.21,.05,.31,.29,1.38,.31,2.78,.29,4.17-.04,2.21,.46,4.3,1.38,6.29,1.41,3.05,3.13,5.92,5.02,8.7,2.05,3.01,4.44,5.74,6.82,8.48,1.01,1.17,2.15,2.19,3.49,2.98,.66,.39,1.07,.92,1.34,1.66,.79,2.17,1.7,4.28,2.7,6.36,.95,1.98,1.86,3.99,2.8,6.01-.26-.07-.37-.28-.51-.45-1.01-1.22-2.2-2.23-3.48-3.15-.71-.51-1.4-1.05-2.05-1.62-1.24-1.08-2.45-2.18-3.66-3.29-.78-.71-1.63-1.31-2.52-1.87-.12-.07-.23-.15-.36-.2-.49-.17-1.11,.27-.97,.74,.42,1.4,.65,2.86,1.42,4.15,.41,.69,.89,1.34,1.48,1.89,1.15,1.06,2.28,2.16,3.47,3.19,1.53,1.32,3.11,2.6,4.67,3.88,.54,.44,1.1,.86,1.67,1.26,.77,.54,1.63,.81,2.57,.67,.39-.06,.69,.04,.95,.29,.63,.61,1.14,1.29,1.42,2.09-.19,.21-.31,.1-.42,.04-1.81-.99-3.63-1.94-5.32-3.14-1.86-1.32-4.01-1.93-6.25-2.24-.59-.08-1.19-.05-1.76,.13-.32,.1-.57,.27-.59,.73,.04,.21,.06,.38,.22,.56Zm10.68-1.27c.05,.13,.18,.31,.14,.37-.15,.2-.29,0-.41-.08-.14-.1-.28-.21-.41-.33-1.43-1.23-2.85-2.46-4.29-3.68-.18-.15-.39-.27-.6-.38-.12-.06-.37,.2-.31,.33,.05,.13,.11,.26,.2,.36,.46,.47,.9,.97,1.42,1.39,1.44,1.16,2.91,2.27,4.36,3.42,.2,.16,.5,.27,.52,.63-.52,0-.97-.19-1.4-.42-.81-.43-1.51-1-2.19-1.6-.57-.51-1.15-1.01-1.74-1.49-.65-.53-1.32-1.03-1.97-1.56-1.67-1.37-3.3-2.79-4.76-4.4-.67-.74-1.12-1.59-1.36-2.56-.14-.54-.3-1.07-.45-1.61-.04-.13-.1-.51,.13-.37,.59,.36,1.33,.94,1.95,1.49,2.51,2.22,5.02,4.43,7.69,6.46,1.41,1.07,2.61,2.31,3.49,4.05ZM70.41,49.33c.09-.22,.11-.33,.17-.41,1.04-1.27,2.15-2.47,3.44-3.49,1.21-.96,2.52-1.74,3.88-2.46,1.33-.7,2.66-1.38,4-2.07,.87-.45,1.54-.81,2.45-1.57,.16-.13,.33-.26,.51-.35,.2-.11,.69-.33,.66-.07-.05,.58-1.8,2.7-3.32,3.99-1.09,.97-2.17,1.97-3.29,2.91-1.04,.87-2.09,1.75-3.37,2.26-.71,.28-1.41,.6-2.12,.89-.22,.09-.46,.17-.69,.23-.23,.06-.46,.22-.83,.16,.17-.18,.25-.29,.36-.37,1.47-1.12,2.97-2.19,4.57-3.12,.6-.35,1.18-.75,1.76-1.13,.11-.08,.24-.17,.29-.28,.05-.1,.04-.26,0-.37-.02-.05-.19-.09-.27-.07-.26,.1-.51,.22-.75,.36-2.07,1.1-3.97,2.46-5.87,3.82-.5,.36-.99,.72-1.58,1.15Zm-5.16,4.44c-.21-.95-.36-1.77-.29-2.6,.09-1.04,.2-2.08,.36-3.12,.2-1.29,.63-2.5,1.41-3.74,.09-.15,.18-.3,.28-.44,.86-1.28,1.55-2.64,2.02-4.12,.37-1.16,.88-2.28,1.34-3.41,.03-.07,.15-.12,.23-.13,.04,0,.11,.07,.15,.13,.21,.39,.16,.82,.14,1.23-.07,2.38-.38,4.73-.79,7.07-.42,2.43-1.43,4.58-2.95,6.51-.49,.63-.92,1.31-1.39,1.96-.13,.19-.28,.36-.52,.66Zm-16.33,16.83c-.11-.28-.19-.43-.23-.6-.25-.91-.5-1.81-.73-2.73-.43-1.74-.7-3.5-.56-5.29,.2-2.51,.6-4.99,1.48-7.52,.23-.62,.44-1.25,.69-1.86,.46-1.13,.94-2.25,1.42-3.38,.03-.07,.12-.13,.25-.27,.02,.27,.05,.43,.04,.6-.03,.56-.06,1.12-.12,1.67-.17,1.61-.13,3.2,.08,4.8,.13,.97,.26,1.94,.36,2.91,.23,2.01,.04,3.97-.6,5.89-.59,1.75-1.19,3.5-1.8,5.25-.05,.15-.15,.28-.29,.52Zm-4.02,9.45c.13-.17,.19-.26,.23-.3,.21-.23,.41-.47,.64-.68,1.69-1.52,3.52-2.85,5.47-4,.45-.27,.89-.56,1.3-.87,.94-.71,1.85-1.49,2.82-2.17,.77-.54,1.5-1.13,2.2-1.77,1.03-.94,2.07-1.87,3.1-2.8,.89-.8,1.9-1.37,3.15-1.63-.95,1.58-1.95,3.03-3.31,4.2-1.48,1.27-2.93,2.58-4.42,3.84-1.31,1.1-2.65,2.15-4.19,2.93-.9,.46-1.75,1.01-2.63,1.52-.32,.18-.65,.33-1.13,.58,.78-.86,1.58-1.41,2.53-2.06,.82-.53,1.64-1.05,2.45-1.59,.14-.09,.26-.23,.36-.37,.05-.07,.06-.21,.02-.28-.04-.07-.18-.13-.25-.11-.23,.07-.47,.15-.67,.28-.91,.58-1.84,1.14-2.7,1.79-1.06,.79-2.05,1.67-3.09,2.49-.35,.28-.75,.5-1.14,.74-.16,.1-.44,.21-.73,.28Zm-4.18,2.99c-.42-1.51-1.05-2.96-1.57-4.43-.25-.69-.41-1.41-.57-2.12-.12-.55-.12-1.11,.12-1.64,.13-.28,.35-.48,.64-.45,.16,.02,.3,.15,.45,.38,.06,.08,.1,.18,.14,.28,.58,1.32,1.01,2.67,1.09,4.29,.05,1.36,.11,2.71,.15,4.07,0,.05-.09,.09-.18,.18-.1-.19-.22-.35-.27-.54Zm-7.25,16.54c.02-.32,.04-.63,.06-.94,.15-1.92,.61-3.79,1.06-5.65,.28-1.16,.67-2.28,1.2-3.34,.89-1.78,1.78-3.56,2.68-5.33,.07-.14,.26-.48,.31-.44,.05,.03,.15,.26,.18,.36,.6,2.06,.66,4.13,.1,6.2-.31,1.15-.7,2.27-1.06,3.4-.51,1.62-1.38,3.04-2.4,4.38-.11,.15-.21,.19-.43,.38-.02-.01-.03-.02,.01-.16,.6-1.46,1.05-2.96,1.32-4.51,.03-.17,.06-.35,.04-.52,0-.08-.11-.21-.18-.22-.12,0-.32,.02-.36,.1-.16,.31-.28,.64-.39,.96-.54,1.7-1.06,3.4-1.82,5.02-.06,.14-.05,.37-.33,.33Zm-3,19.55s0-.05-.03-.13c.04-.42,.06-.83,.12-1.25,.23-1.52,.48-3.03,.72-4.55,.31-1.95,.91-3.8,1.85-5.53,.78-1.44,1.61-2.85,2.47-4.24,.69-1.13,1.43-2.23,1.95-3.46,.02-.06,.14-.23,.21-.2,.09,.04,.1,.36,.11,.52,.09,1.19,.08,2.37-.12,3.54-.25,1.48-.51,2.96-.81,4.42-.36,1.78-.85,3.53-1.56,5.2-.78,1.82-1.87,3.43-3.49,4.68,0-.02,.02-.05,.03-.08,.28-.52,.61-1.02,.83-1.57,.9-2.26,1.77-4.54,2.64-6.81,.04-.1,.09-.21,.07-.3-.03-.16-.05-.37-.16-.45-.17-.13-.34,.05-.41,.19-.15,.28-.25,.57-.37,.86-1.09,2.79-2.18,5.57-3.53,8.25-.15,.3-.34,.58-.53,.88Zm-.82,1.58c-.3,.76-.73,1.58-1.22,2.3,0-.02,0-.04,0-.07,.17-1.3,.32-2.55,.57-3.77,.41-2.01,.88-4,1.34-6,.08-.33,.18-.62,.3-.98,.04-.13,.07-.18,.12-.32,.01-.03,.03-.05,.05-.07-.01,.05-.02,.1-.04,.18-.02,.11-.04,.23-.07,.38-.17,1.23-.33,2.33-.59,3.48-.27,1.24-.39,2.48-.35,3.74,.01,.38,.02,.79-.12,1.13Zm-3.12,.45c-.31-1.52-.27-3.05-.21-4.58,.06-1.5,.02-3-.09-4.49-.14-1.88-.26-3.76-.37-5.63-.14-2.4-.28-4.8-.41-7.2,0-.19,0-.38,0-.57,.17,.18,.24,.37,.28,.57,.46,2.29,.91,4.58,1.39,6.86,.34,1.58,.47,3.17,.4,4.78-.05,1.04-.12,2.09-.19,3.28-.03,.45-.07,.9-.1,1.36-.03,.45-.05,.9-.08,1.36-.02,.45-.04,.9-.05,1.36-.01,.45-.02,.91-.02,1.36s.03,.91,.02,1.36c0,.44,.1,.89-.07,1.39-.37-.38-.41-.79-.5-1.19Zm-.56,6.18c.57,1.23,.94,2.47,.96,3.81,0,.13,.04,.29-.17,.35-.05-.08-.12-.15-.17-.24-.66-1.27-1.34-2.53-1.98-3.81-.41-.81-1.07-1.36-1.79-1.86-.08-.05-.19-.06-.3-.09-.13-.03-.29,.13-.23,.25,.09,.18,.18,.39,.33,.51,.85,.66,1.44,1.52,1.89,2.47,.51,1.07,1,2.15,1.5,3.22,.2,.43,.2,.43,.81,.39,.03,0,.07,0,.08-.02,0,0,.02,0,0,.15-.05,.5-.02,1.02-.22,1.62-.34-.37-.42-.74-.57-1.08-.35-.8-.66-1.61-1.07-2.38-.94-1.81-2.31-3.22-4.13-4.17-.4-.21-.8-.43-1.19-.66-.58-.33-1.08-.77-1.49-1.3-.46-.6-.71-1.28-.7-2.04,0-.44,.29-.72,.72-.73,.21,0,.42,.01,.62,.07,.67,.2,1.36,.35,1.98,.65,2.25,1.05,4.01,2.58,5.09,4.9Zm4.22,18.66c-.64,1.92-1.31,3.83-1.97,5.75-.06,.19-.11,.27-.27,.58-.03,0-.06,0-.09,0-.01-.08-.02-.26-.02-.41,0-.4,.02-.33,.02-.6-.01-1.25,.05-2.52-.06-3.76-.18-2.02-.48-4.02-.74-6.03-.06-.5-.28-1,.18-1.47,.14-.14,.09-.47,.1-.71,.02-1.08,0-2.17,.03-3.25,.11-2.87,.23-4.89,1.42-7.56,.71-1.6,1.26-3.25,1.72-4.94,.48-1.79,1.66-3.12,2.99-4.34,.05-.05,.12-.09,.18-.09,.06,0,.15,.03,.17,.08,.05,.13,.09,.26,.1,.4,.07,1.4,.01,2.79-.13,4.18-.32,3.09-.6,6.19-.95,9.27-.49,4.38-1.27,8.71-2.67,12.9Zm-1,5.33c.03-.07,.15-.15,.25-.24,0,.03-.01,.06-.02,.1-.52,2.24-1.05,4.49-1.3,6.78-.02,.13-.02,.24-.05,.57-.03,.25-.05,.44-.06,.69-.11-.21-.13-.35-.13-.59,0-.09,0-.2,.01-.5,.13-2.41,.37-4.61,1.3-6.81Zm-.59,9.34s.05-.05,.01-.2c.1-1.53,.38-3.04,.62-4.56,.33-2.04,.79-4.03,1.39-6.01,.79-2.59,1.79-5.08,3.17-7.4,2.58-4.36,5.23-8.67,7.86-13,.08-.13,.12-.34,.37-.31,.02,.1,.06,.2,.05,.29-.07,.69-.14,1.39-.25,2.08-.19,1.17-.42,2.34-.61,3.51-.29,1.72-.67,3.43-1.24,5.08-.93,2.71-1.87,5.42-2.84,8.11-1.11,3.06-2.84,5.74-4.97,8.19-1.1,1.27-2.24,2.49-3.18,3.89-.07,.11-.2,.18-.27,.33-.03,0-.07,0-.11,0Zm-2.32-2.19c-.83-1.16-1.65-2.34-2.48-3.5-.51-.71-.93-1.48-1.22-2.3-.53-1.48-.9-3-1.02-4.58-.29-3.98-.05-7.95,.54-11.89,.19-1.25,.37-2.48,.28-3.74,0-.15-.07-.52,.22-.45,.68,.18,1.31,1.4,1.67,2.31,.96,2.4,1.77,4.85,2.08,7.43,.17,1.46,.34,2.91,.55,4.36,.24,1.66,.33,3.33,.23,5.01-.05,.8-.05,1.6,.14,2.39,.06,.23,.07,.49,.05,.73-.08,1.12-.17,2.24-.25,3.34-.98-3.4-1.99-6.89-2.24-10.44-.13-1.84-.4-3.67-.63-5.51-.02-.19-.13-.39-.26-.53-.09-.1-.33,.23-.31,.56,.08,1.57,.13,3.14,.29,4.7,.19,1.84,.43,3.67,.75,5.49,.29,1.61,.68,3.21,1.23,4.75,.15,.43,.61,1.77,.9,2.51-.19-.2-.37-.41-.53-.64Zm-6.98,1.57c-.35-.78-.69-1.58-.9-2.42-.09-.33-.16-.61-.31-1.09-.06-.21-.09-.3-.15-.46,.03-.01,.06-.02,.08-.04,.13,.27,.18,.42,.33,.82,.41,1.07,.7,2.06,.95,3.18Zm13.6,21.35c-.38-.24-.59-.36-.78-.5-1.34-1.02-2.52-2.21-3.76-3.58-.92-1.14-1.84-2.28-2.77-3.41-1.51-1.83-2.95-3.72-4.16-5.77-.74-1.26-1.41-2.57-2.19-3.82-.65-1.04-1.2-2.12-1.67-3.25-.49-1.17-.8-2.38-1.03-3.62-.17-.9-.16-1.82,.07-2.73,.46,1.58,.97,3.14,1.6,4.65,.58,1.38,1.03,2.83,1.67,4.18,.97,2.05,2.04,4.06,3.09,6.07,.34,.65,.79,1.24,1.2,1.84,.04,.06,.21,.09,.26,.05,.06-.04,.08-.14,.09-.27,0-.03,0-.1,0-.1,0,0,.05-.02,.08-.02,.53,.86,1.04,1.74,1.6,2.58,.64,.95,1.26,1.94,2.02,2.8,1.21,1.35,2.39,2.74,3.87,3.82,.19,.14,.36,.33,.52,.51,.09,.11,.14,.26,.3,.57Zm20.41,29.79c-.52-1.74-1.02-3.49-1.2-5.3-.4-4.02-.05-7.95,1.52-11.71,.2-.48,.41-.97,.61-1.45,.53-1.3,.96-2.63,1.13-4.02,.25-2.09,.81-4.11,1.49-6.09,.1-.29,.27-.55,.41-.82,.34,.27,.48,.46,.64,.74,.12,.21,.18,.45,.24,.69,.51,2.21,.98,4.43,1.12,6.7,.13,2.16,.24,4.32,.3,6.48,.09,2.97-.12,5.93-.64,8.86-.25,1.38-.48,2.75-.68,4.13-.33,2.25-.89,4.45-1.4,6.66-.03,.12-.13,.23-.19,.37,0,0,0-.03-.02-.15,.03-.91,.06-1.81,.09-2.72,.12-2.93,.24-5.86,.36-8.79,.02-.49,0-.98-.18-1.44-.05-.12-.12-.21-.25-.32-.11-.09-.33-.04-.34,.08-.03,.17-.05,.34-.05,.52,.01,.9,.08,1.81,.05,2.72-.08,2.44-.21,4.88-.31,7.32-.04,.94-.03,1.88-.04,2.83,0,.16,.07,.35-.15,.44-1.55-2.68-1.7-2.98-2.51-5.73Zm-7.35-5.38c.63,.84,1.25,1.67,1.78,2.58-.22-.18-.42-.37-.58-.59-.47-.68-1.06-1.27-1.58-2.07-1.06-1.65-2.01-3.33-2.8-5.11,1,1.72,1.92,3.5,3.18,5.19Zm-1.87-4.35c-.72-1.24-1.45-2.47-2.14-3.73-.67-1.22-1.31-2.47-1.96-3.7-.46-.88-.71-1.82-.83-2.8-.08-.66-.15-1.32-.25-1.97-.71-4.48-1.29-8.98-1.74-13.5-.13-1.36-.3-2.71-.37-4.07-.14-2.47-.17-4.85-.64-7.29,0-.03-.03-.18-.04-.21-.02-.17-.07-.41,.18-.35,.1,.02,.19,.15,.27,.25,2.01,2.49,3.65,5.19,4.74,8.22,.22,.63,.48,1.24,.67,1.87,.67,2.17,1.47,4.3,1.91,6.53,.42,2.12,.93,4.23,1.15,6.39,.48,4.59,.75,9.19,.49,13.8-.01,.19-.05,.38-.07,.58-.19-.26-.23-.52-.29-.79-.18-.92-.37-1.85-.56-2.77-.28-1.4-.62-2.8-.83-4.21-.32-2.18-.56-4.36-.83-6.54-.04-.35-.08-.69-.15-1.03-.08-.34-.3-.51-.48-.42-.24,.11-.23,.33-.21,.54,.09,.94,.19,1.88,.31,2.97,.18,1.49,.28,2.99,.54,4.47,.37,2.13,.85,4.24,1.28,6.36,.12,.6,.29,1.2,.32,1.82-.33,0-.37-.25-.46-.41Zm12.97,20.6c.14,0,.26-.05,.32-.01,.84,.59,1.67,1.2,2.35,2.05,.02,.03,.03,.07,.05,.11-.06-.02-.08-.02-.24-.11-.86-.44-1.53-1.17-2.28-1.76-.07-.06-.11-.16-.19-.28Zm-7.7-11.33c.18,.16,.38,.31,.58,.44,1.01,.7,1.93,1.49,2.89,2.51,.24,.3,.49,.59,.73,.89,.98,1.2,1.59,2.62,2.26,4,.32,.65,.55,1.36,.79,2.05,.16,.44,.04,.6-.39,.63-1.42,.11-2.79-.08-4.03-.85-.41-.26-.84-.5-1.24-.79-2.16-1.59-4.26-3.26-6.05-5.29-.99-1.13-1.68-2.38-1.98-3.86-.15-.75-.36-1.49-.53-2.24-.02-.1-.06-.3,0-.37,.06-.06,.35,.04,.5,.09,.51,.14,1,.31,1.51,.42,1.83,.41,3.53,1.08,4.94,2.36Zm-8.91-14.16c.49,.85,.94,1.71,1.38,2.59,.05,.1-.02,.13-.07,.02-.02-.03-.03-.06-.11-.2-.15-.28-.3-.55-.45-.83-.15-.28-.3-.55-.45-.83-.12-.24-.29-.46-.29-.75Zm-10.62,2.61c.06-.1,.19-.1,.29-.12,1.38-.17,2.6,.11,3.86,.62,.07,.03,.18,.09,.36,.16,.09,.04,.07,.03,.24,.1,.08,.03,.14,.06,.35,.13,.06,.02,.14,.06,.33,.13,.85,.31,1.63,.75,2.36,1.27,1.35,.97,2.8,1.77,4.26,2.56,.21,.11,.41,.22,.69,.36,.07,.03,.12,.06,.28,.11,.07,.02,.12,.03,.29,.09,.06,.02,.13,.04,.29,.09,.06,.02,.11,.02,.28,.09,.06,.02,.13,.05,.19,.1,0,0,0,.03-.12,.01-.07-.01-.11-.02-.27-.08-.07-.03-.18-.04-.33-.1-.08-.03-.12-.03-.29-.08-.07-.02-.09-.03-.26-.08-.07-.02-.12-.04-.32-.1-.46-.15-.92-.33-1.34-.58-1.83-1.08-3.64-2.19-5.45-3.3-.16-.1-.32-.21-.55-.32-.07-.03-.13-.07-.29-.13-.08-.03-.11-.05-.27-.1-.07-.02-.13-.05-.34-.09-.51-.08-1.03-.13-1.54-.2-.79-.1-1.58-.2-2.37-.31-.14-.02-.49-.03-.37-.25Zm1.42-45.6c.09-.34,.24-.66,.38-1.05,.9-2.57,1.92-5.02,3.07-7.41,.3-.63,.57-1.28,.86-1.91,.12-.25,.25-.5,.42-.72,.07-.09,.26-.15,.36-.12,.09,.03,.2,.22,.18,.31-.1,.4-.19,.82-.36,1.19-1.53,3.25-2.94,6.56-4.22,9.92-.1,.26-.23,.51-.37,.74-.04,.06-.18,.13-.24,.11-.08-.04-.16-.16-.16-.24,0-.27,.02-.55,.08-.82Zm-2.29-8.71c-.02,.05-.12,.11-.17,.1-.09-.02-.22-.08-.24-.15-.06-.16-.08-.33-.08-.5,.01-.52,.05-1.04,.08-1.64,.3-3.31,.6-6.54,.91-9.77,.06-.59,.17-1.17,.27-1.76,.03-.16,.11-.33,.2-.47,.05-.07,.19-.12,.27-.1,.08,.01,.18,.11,.2,.19,.14,.41,.05,.83-.01,1.24-.18,1.17-.4,2.34-.51,3.52-.19,1.94-.29,3.9-.45,5.85-.08,.97-.19,1.95-.3,2.92-.02,.2-.1,.4-.18,.59Zm26.06,74.4c.09,.1,.15,.24,.18,.37,.02,.08-.03,.22-.1,.27-.07,.05-.22,.09-.28,.05-.23-.15-.45-.32-.65-.51-1.42-1.33-2.83-2.67-4.31-4.06-.85-.63-1.62-1.21-2.41-1.78-.42-.3-.89-.54-1.32-.84-.22-.15-.63-.33-.49-.58,.17-.31,.56-.06,.82,.05,.45,.19,.89,.4,1.3,.66,1.26,.81,2.47,1.69,3.54,2.74,.95,.92,1.93,1.81,2.88,2.72,.3,.29,.58,.6,.84,.91Zm-6.19-155.96c-.06-.98-.03-1.95,.1-3,.01-.7,.02-1.33,.02-1.96,0-.14,0-.28,.03-.41,.03-.08,.13-.18,.21-.19,.07-.01,.2,.06,.24,.13,.28,.47,.31,.99,.3,1.52-.03,.8-.08,1.6-.12,2.41-.07,1.32-.1,2.37-.11,3.71,0,.27,0,.61,.01,.99,.01,.25,.08,.6-.29,.71-.19,.06-.32-.22-.33-.77-.03-1.04,0-2.09-.07-3.14Zm18.6-18.06c.08-.26,.16-.53,.29-.78,.05-.1,.21-.15,.33-.22,.06,.11,.19,.22,.18,.31-.07,.58-.11,1.18-.27,1.74-.47,1.56-.99,3.11-1.5,4.67-.11,.33-.25,.65-.41,.96-.07,.15-.2,.28-.34,.38-.1,.06-.25,.04-.38,.05,0-.13-.02-.27,0-.47,.25-.69,.51-1.3,.7-1.93,.48-1.56,.94-3.13,1.41-4.7Z"/>
  </g>
</svg>